<svg width="24" height="24" viewBox="0 0 24 24" fill="none" xmlns="http://www.w3.org/2000/svg">
<path d="M11.5989 15.2008C13.2557 15.2008 14.5989 13.8577 14.5989 12.2008C14.5989 10.544 13.2557 9.20084 11.5989 9.20084C9.94202 9.20084 8.59888 10.544 8.59888 12.2008C8.59888 13.8577 9.94202 15.2008 11.5989 15.2008Z" stroke-linecap="round" stroke-linejoin="round"/>
<path d="M18.9989 15.2008C18.8658 15.5025 18.8261 15.837 18.8849 16.1614C18.9437 16.4858 19.0983 16.7852 19.3289 17.0208L19.3889 17.0808C19.5748 17.2666 19.7223 17.4872 19.823 17.73C19.9236 17.9728 19.9755 18.233 19.9755 18.4958C19.9755 18.7587 19.9236 19.0189 19.823 19.2617C19.7223 19.5045 19.5748 19.7251 19.3889 19.9108C19.2031 20.0968 18.9826 20.2443 18.7398 20.345C18.497 20.4456 18.2367 20.4974 17.9739 20.4974C17.711 20.4974 17.4508 20.4456 17.208 20.345C16.9652 20.2443 16.7446 20.0968 16.5589 19.9108L16.4989 19.8508C16.2632 19.6203 15.9639 19.4657 15.6395 19.4068C15.3151 19.348 14.9805 19.3877 14.6789 19.5208C14.3831 19.6476 14.1309 19.8581 13.9532 20.1264C13.7755 20.3947 13.6802 20.709 13.6789 21.0308V21.2008C13.6789 21.7313 13.4682 22.24 13.0931 22.615C12.718 22.9901 12.2093 23.2008 11.6789 23.2008C11.1484 23.2008 10.6397 22.9901 10.2647 22.615C9.88959 22.24 9.67888 21.7313 9.67888 21.2008V21.1108C9.67113 20.7798 9.564 20.4588 9.37139 20.1895C9.17878 19.9202 8.90961 19.7151 8.59888 19.6008C8.29726 19.4677 7.96268 19.428 7.63829 19.4868C7.31389 19.5457 7.01456 19.7003 6.77888 19.9308L6.71888 19.9908C6.53313 20.1768 6.31255 20.3243 6.06976 20.425C5.82696 20.5256 5.56671 20.5774 5.30388 20.5774C5.04105 20.5774 4.78079 20.5256 4.538 20.425C4.2952 20.3243 4.07462 20.1768 3.88888 19.9908C3.70292 19.8051 3.55541 19.5845 3.45476 19.3417C3.35411 19.0989 3.3023 18.8387 3.3023 18.5758C3.3023 18.313 3.35411 18.0528 3.45476 17.81C3.55541 17.5672 3.70292 17.3466 3.88888 17.1608L3.94888 17.1008C4.17941 16.8652 4.33406 16.5658 4.39288 16.2414C4.4517 15.917 4.41199 15.5825 4.27888 15.2808C4.15211 14.9851 3.94163 14.7328 3.67334 14.5551C3.40505 14.3775 3.09066 14.2821 2.76888 14.2808H2.59888C2.06844 14.2808 1.55974 14.0701 1.18466 13.695C0.809591 13.32 0.598877 12.8113 0.598877 12.2808C0.598877 11.7504 0.809591 11.2417 1.18466 10.8666C1.55974 10.4916 2.06844 10.2808 2.59888 10.2808H2.68888C3.01987 10.2731 3.34088 10.166 3.61018 9.97335C3.87947 9.78074 4.08459 9.51157 4.19888 9.20084C4.33199 8.89922 4.3717 8.56464 4.31288 8.24025C4.25406 7.91585 4.09941 7.61652 3.86888 7.38084L3.80888 7.32084C3.62292 7.13509 3.47541 6.91451 3.37476 6.67172C3.27411 6.42892 3.2223 6.16867 3.2223 5.90584C3.2223 5.64301 3.27411 5.38275 3.37476 5.13996C3.47541 4.89716 3.62292 4.67658 3.80888 4.49084C3.99462 4.30488 4.2152 4.15737 4.458 4.05672C4.70079 3.95607 4.96105 3.90426 5.22388 3.90426C5.48671 3.90426 5.74696 3.95607 5.98976 4.05672C6.23255 4.15737 6.45313 4.30488 6.63888 4.49084L6.69888 4.55084C6.93456 4.78137 7.23389 4.93602 7.55829 4.99484C7.88268 5.05366 8.21726 5.01395 8.51888 4.88084H8.59888C8.89465 4.75407 9.14689 4.54359 9.32457 4.2753C9.50225 4.00701 9.59759 3.69262 9.59888 3.37084V3.20084C9.59888 2.6704 9.80959 2.1617 10.1847 1.78662C10.5597 1.41155 11.0684 1.20084 11.5989 1.20084C12.1293 1.20084 12.638 1.41155 13.0131 1.78662C13.3882 2.1617 13.5989 2.6704 13.5989 3.20084V3.29084C13.6002 3.61262 13.6955 3.92701 13.8732 4.1953C14.0509 4.46359 14.3031 4.67407 14.5989 4.80084C14.9005 4.93395 15.2351 4.97366 15.5595 4.91484C15.8839 4.85602 16.1832 4.70137 16.4189 4.47084L16.4789 4.41084C16.6646 4.22488 16.8852 4.07737 17.128 3.97672C17.3708 3.87607 17.631 3.82426 17.8939 3.82426C18.1567 3.82426 18.417 3.87607 18.6598 3.97672C18.9026 4.07737 19.1231 4.22488 19.3089 4.41084C19.4948 4.59658 19.6423 4.81716 19.743 5.05996C19.8436 5.30275 19.8955 5.56301 19.8955 5.82584C19.8955 6.08867 19.8436 6.34892 19.743 6.59172C19.6423 6.83451 19.4948 7.05509 19.3089 7.24084L19.2489 7.30084C19.0183 7.53652 18.8637 7.83585 18.8049 8.16025C18.7461 8.48464 18.7858 8.81922 18.9189 9.12084V9.20084C19.0456 9.49661 19.2561 9.74885 19.5244 9.92653C19.7927 10.1042 20.1071 10.1996 20.4289 10.2008H20.5989C21.1293 10.2008 21.638 10.4116 22.0131 10.7866C22.3882 11.1617 22.5989 11.6704 22.5989 12.2008C22.5989 12.7313 22.3882 13.24 22.0131 13.615C21.638 13.9901 21.1293 14.2008 20.5989 14.2008H20.5089C20.1871 14.2021 19.8727 14.2975 19.6044 14.4751C19.3361 14.6528 19.1256 14.9051 18.9989 15.2008Z" stroke-linecap="round" stroke-linejoin="round"/>
</svg>
